<svg width="84" height="36" viewBox="0 0 84 36" fill="none" xmlns="http://www.w3.org/2000/svg">
<path d="M3.24202 22.0864L3.33208 24.1802V35.0545H0V3.46725L1.71107 1.62109H18.3715V4.95317H3.15197L3.33208 7.04698V16.638L3.15197 18.3265H3.37711L17.651 11.2571L19.1369 14.229L3.24202 22.0864Z" fill="#181818"/>
<path d="M26.0272 35.0544H22.7852V1.62101H25.9371L26.1172 18.3264L26.0272 35.0544ZM35.8883 15.8724C34.8077 15.8724 33.772 15.6698 32.8039 15.242C31.8358 14.8143 30.9803 14.2514 30.2823 13.5309C29.5619 12.8105 28.999 11.955 28.5938 11.0094C28.166 10.0638 27.9634 9.02814 27.9634 7.90243C27.9634 6.82176 28.166 5.80863 28.5938 4.84052C29.0216 3.89493 29.5844 3.0394 30.2823 2.31895C31.0028 1.5985 31.8358 1.01313 32.8039 0.60788C33.772 0.202627 34.8077 0 35.8883 0C36.9915 0 38.0272 0.202627 38.9953 0.630394C39.9409 1.05816 40.7964 1.62101 41.5169 2.34146C42.2373 3.06191 42.8227 3.91745 43.2279 4.86304C43.6557 5.83114 43.8583 6.84427 43.8583 7.92495C43.8583 9.02814 43.6557 10.0638 43.2279 11.0319C42.8002 12 42.2373 12.833 41.5169 13.5535C40.7964 14.2739 39.9409 14.8593 38.9953 15.2645C38.0272 15.6698 36.9915 15.8724 35.8883 15.8724ZM41.9446 35.7974L44.6238 33.8161L34.9878 20.848L32.894 18.349L30.3049 20.2401L41.9446 35.7974ZM35.8883 3.33208C35.2354 3.33208 34.6276 3.44465 34.0872 3.69231C33.5244 3.93996 33.0516 4.27767 32.6238 4.68292C32.196 5.11069 31.8808 5.58349 31.6557 6.14634C31.4306 6.70919 31.318 7.29456 31.318 7.90243C31.318 8.55534 31.4306 9.16322 31.6557 9.72607C31.8808 10.2889 32.2185 10.7842 32.6238 11.212C33.0516 11.6398 33.5244 11.955 34.0872 12.1801C34.6501 12.4052 35.2354 12.5178 35.8883 12.5178C36.5412 12.5178 37.1491 12.4052 37.6895 12.1801C38.2523 11.955 38.7251 11.6173 39.1529 11.212C39.5806 10.7842 39.8958 10.3114 40.1435 9.72607C40.3912 9.16322 40.5037 8.55534 40.5037 7.90243C40.5037 7.29456 40.3912 6.70919 40.1435 6.14634C39.8958 5.58349 39.5581 5.11069 39.1529 4.68292C38.7251 4.25516 38.2523 3.93996 37.6895 3.69231C37.1266 3.46717 36.5412 3.33208 35.8883 3.33208Z" fill="#181818"/>
<path d="M62.8373 4.95317H46.1319V1.62109H62.8373V4.95317ZM46.1094 20.0151V16.6605H62.8148V19.9926H46.1094V20.0151ZM62.8373 35.0545H46.1319V31.7224H62.8373V35.0545Z" fill="#181818"/>
<path d="M83.9994 4.95317H67.294V1.62109H83.9994V4.95317ZM67.2715 20.0151V16.6605H83.9769V19.9926H67.2715V20.0151ZM83.9994 35.0545H67.294V31.7224H83.9994V35.0545Z" fill="#181818"/>
</svg>
